HIERARCHY
ROOT Root
{
  OFFSET 0.0 0.0 0.0
  CHANNELS 6 Xposition Yposition Zposition Zrotation Yrotation Xrotation
  JOINT Hips
  {
    OFFSET 0.0 100.0 0.0
    CHANNELS 6 Xposition Yposition Zposition Zrotation Yrotation Xrotation
    JOINT Spine1
    {
      OFFSET 5.003913 -0.037094 -0.013727
      CHANNELS 3 Zrotation Yrotation Xrotation
      JOINT Spine2
      {
        OFFSET 7.125363 -1e-06 0.0
        CHANNELS 3 Zrotation Yrotation Xrotation
        JOINT Chest
        {
          OFFSET 7.594027 1e-06 0.0
          CHANNELS 3 Zrotation Yrotation Xrotation
          JOINT Neck1
          {
            OFFSET 26.313086 -0.460272 -0.181672
            CHANNELS 3 Zrotation Yrotation Xrotation
            JOINT Neck2
            {
              OFFSET 8.045911 0.0 0.0
              CHANNELS 3 Zrotation Yrotation Xrotation
              JOINT Head
              {
                OFFSET 6.432774 0.0 0.0
                CHANNELS 3 Zrotation Yrotation Xrotation
                JOINT HeadEnd
                {
                  OFFSET 16.169773 0.06451 0.00362
                  CHANNELS 3 Zrotation Yrotation Xrotation
                }
                JOINT Jaw
                {
                  OFFSET 0.108741 3.12938 0.002639
                  CHANNELS 3 Zrotation Yrotation Xrotation
                }
                JOINT LeftEye
                {
                  OFFSET 4.45173 8.166359 3.206392
                  CHANNELS 3 Zrotation Yrotation Xrotation
                }
                JOINT RightEye
                {
                  OFFSET 4.436895 8.135758 -3.222429
                  CHANNELS 3 Zrotation Yrotation Xrotation
                }
              }
            }
          }
          JOINT LeftShoulder
          {
            OFFSET 23.218927 5.195579 1.621656
            CHANNELS 3 Zrotation Yrotation Xrotation
            JOINT LeftArm
            {
              OFFSET 15.902118 2e-06 -2e-06
              CHANNELS 3 Zrotation Yrotation Xrotation
              JOINT LeftForeArm
              {
                OFFSET 28.739307 0.0 -1e-06
                CHANNELS 3 Zrotation Yrotation Xrotation
                JOINT LeftHand
                {
                  OFFSET 27.093981 -4e-06 0.0
                  CHANNELS 3 Zrotation Yrotation Xrotation
                  JOINT LeftHandThumb1
                  {
                    OFFSET 2.276781 3.380274 0.83384
                    CHANNELS 3 Zrotation Yrotation Xrotation
                    JOINT LeftHandThumb2
                    {
                      OFFSET 4.705309 -1e-06 -1e-06
                      CHANNELS 3 Zrotation Yrotation Xrotation
                      JOINT LeftHandThumb3
                      {
                        OFFSET 2.798515 0.0 3e-06
                        CHANNELS 3 Zrotation Yrotation Xrotation
                        JOINT LeftHandThumbEnd
                        {
                          OFFSET 3.180793 4e-06 -4e-06
                          CHANNELS 3 Zrotation Yrotation Xrotation
                        }
                      }
                    }
                  }
                  JOINT LeftHandIndex1
                  {
                    OFFSET 3.247786 2.352677 0.137192
                    CHANNELS 3 Zrotation Yrotation Xrotation
                    JOINT LeftHandIndex2
                    {
                      OFFSET 6.367095 1e-06 0.0
                      CHANNELS 3 Zrotation Yrotation Xrotation
                      JOINT LeftHandIndex3
                      {
                        OFFSET 3.662364 0.0 0.0
                        CHANNELS 3 Zrotation Yrotation Xrotation
                        JOINT LeftHandIndex4
                        {
                          OFFSET 2.329242 4e-06 -4e-06
                          CHANNELS 3 Zrotation Yrotation Xrotation
                          JOINT LeftHandIndexEnd
                          {
                            OFFSET 2.767823 1e-06 0.0
                            CHANNELS 3 Zrotation Yrotation Xrotation
                          }
                        }
                      }
                    }
                  }
                  JOINT LeftHandMiddle1
                  {
                    OFFSET 3.163612 0.945023 -0.406112
                    CHANNELS 3 Zrotation Yrotation Xrotation
                    JOINT LeftHandMiddle2
                    {
                      OFFSET 6.276789 3e-06 0.0
                      CHANNELS 3 Zrotation Yrotation Xrotation
                      JOINT LeftHandMiddle3
                      {
                        OFFSET 4.35652 -1e-06 4e-06
                        CHANNELS 3 Zrotation Yrotation Xrotation
                        JOINT LeftHandMiddle4
                        {
                          OFFSET 2.996877 0.0 8e-06
                          CHANNELS 3 Zrotation Yrotation Xrotation
                          JOINT LeftHandMiddleEnd
                          {
                            OFFSET 2.323256 3e-06 -4e-06
                            CHANNELS 3 Zrotation Yrotation Xrotation
                          }
                        }
                      }
                    }
                  }
                  JOINT LeftHandRing1
                  {
                    OFFSET 2.882606 -0.309162 0.107445
                    CHANNELS 3 Zrotation Yrotation Xrotation
                    JOINT LeftHandRing2
                    {
                      OFFSET 6.033198 0.0 4e-06
                      CHANNELS 3 Zrotation Yrotation Xrotation
                      JOINT LeftHandRing3
                      {
                        OFFSET 4.350578 3e-06 0.0
                        CHANNELS 3 Zrotation Yrotation Xrotation
                        JOINT LeftHandRing4
                        {
                          OFFSET 2.651321 2e-06 -7e-06
                          CHANNELS 3 Zrotation Yrotation Xrotation
                          JOINT LeftHandRingEnd
                          {
                            OFFSET 1.937663 1e-06 -4e-06
                            CHANNELS 3 Zrotation Yrotation Xrotation
                          }
                        }
                      }
                    }
                  }
                  JOINT LeftHandPinky1
                  {
                    OFFSET 2.865315 -1.525436 0.575687
                    CHANNELS 3 Zrotation Yrotation Xrotation
                    JOINT LeftHandPinky2
                    {
                      OFFSET 5.54936 1e-06 -8e-06
                      CHANNELS 3 Zrotation Yrotation Xrotation
                      JOINT LeftHandPinky3
                      {
                        OFFSET 3.070974 0.0 -4e-06
                        CHANNELS 3 Zrotation Yrotation Xrotation
                        JOINT LeftHandPinky4
                        {
                          OFFSET 1.549672 1e-06 0.0
                          CHANNELS 3 Zrotation Yrotation Xrotation
                          JOINT LeftHandPinkyEnd
                          {
                            OFFSET 1.952123 0.0 0.0
                            CHANNELS 3 Zrotation Yrotation Xrotation
                          }
                        }
                      }
                    }
                  }
                }
              }
            }
          }
          JOINT RightShoulder
          {
            OFFSET 23.161716 5.296122 -1.380114
            CHANNELS 3 Zrotation Yrotation Xrotation
            JOINT RightArm
            {
              OFFSET -16.027195 -2e-06 1.1e-05
              CHANNELS 3 Zrotation Yrotation Xrotation
              JOINT RightForeArm
              {
                OFFSET -28.736639 4e-06 2e-06
                CHANNELS 3 Zrotation Yrotation Xrotation
                JOINT RightHand
                {
                  OFFSET -27.133619 6e-06 0.0
                  CHANNELS 3 Zrotation Yrotation Xrotation
                  JOINT RightHandThumb1
                  {
                    OFFSET -2.274328 -3.351035 -0.83067
                    CHANNELS 3 Zrotation Yrotation Xrotation
                    JOINT RightHandThumb2
                    {
                      OFFSET -4.703594 -3e-06 2e-06
                      CHANNELS 3 Zrotation Yrotation Xrotation
                      JOINT RightHandThumb3
                      {
                        OFFSET -2.794935 -4e-06 -3e-06
                        CHANNELS 3 Zrotation Yrotation Xrotation
                        JOINT RightHandThumbEnd
                        {
                          OFFSET -3.183852 4e-06 1e-06
                          CHANNELS 3 Zrotation Yrotation Xrotation
                        }
                      }
                    }
                  }
                  JOINT RightHandIndex1
                  {
                    OFFSET -3.253496 -2.33755 -0.127667
                    CHANNELS 3 Zrotation Yrotation Xrotation
                    JOINT RightHandIndex2
                    {
                      OFFSET -6.344434 0.0 0.0
                      CHANNELS 3 Zrotation Yrotation Xrotation
                      JOINT RightHandIndex3
                      {
                        OFFSET -3.654871 0.0 -8e-06
                        CHANNELS 3 Zrotation Yrotation Xrotation
                        JOINT RightHandIndex4
                        {
                          OFFSET -2.327586 -1e-06 0.0
                          CHANNELS 3 Zrotation Yrotation Xrotation
                          JOINT RightHandIndexEnd
                          {
                            OFFSET -2.770001 3e-06 8e-06
                            CHANNELS 3 Zrotation Yrotation Xrotation
                          }
                        }
                      }
                    }
                  }
                  JOINT RightHandMiddle1
                  {
                    OFFSET -3.168223 -0.944764 0.411762
                    CHANNELS 3 Zrotation Yrotation Xrotation
                    JOINT RightHandMiddle2
                    {
                      OFFSET -6.266691 -1e-06 -4e-06
                      CHANNELS 3 Zrotation Yrotation Xrotation
                      JOINT RightHandMiddle3
                      {
                        OFFSET -4.348901 0.0 0.0
                        CHANNELS 3 Zrotation Yrotation Xrotation
                        JOINT RightHandMiddle4
                        {
                          OFFSET -3.00024 2e-06 -4e-06
                          CHANNELS 3 Zrotation Yrotation Xrotation
                          JOINT RightHandMiddleEnd
                          {
                            OFFSET -2.321477 -4e-06 -4e-06
                            CHANNELS 3 Zrotation Yrotation Xrotation
                          }
                        }
                      }
                    }
                  }
                  JOINT RightHandRing1
                  {
                    OFFSET -2.885654 0.293261 -0.119232
                    CHANNELS 3 Zrotation Yrotation Xrotation
                    JOINT RightHandRing2
                    {
                      OFFSET -6.032835 -1e-06 -4e-06
                      CHANNELS 3 Zrotation Yrotation Xrotation
                      JOINT RightHandRing3
                      {
                        OFFSET -4.33881 0.0 -4e-06
                        CHANNELS 3 Zrotation Yrotation Xrotation
                        JOINT RightHandRing4
                        {
                          OFFSET -2.654903 -4e-06 -4e-06
                          CHANNELS 3 Zrotation Yrotation Xrotation
                          JOINT RightHandRingEnd
                          {
                            OFFSET -1.935122 0.0 4e-06
                            CHANNELS 3 Zrotation Yrotation Xrotation
                          }
                        }
                      }
                    }
                  }
                  JOINT RightHandPinky1
                  {
                    OFFSET -2.866241 1.503904 -0.60527
                    CHANNELS 3 Zrotation Yrotation Xrotation
                    JOINT RightHandPinky2
                    {
                      OFFSET -5.553177 -2e-06 0.0
                      CHANNELS 3 Zrotation Yrotation Xrotation
                      JOINT RightHandPinky3
                      {
                        OFFSET -3.062664 -1e-06 -4e-06
                        CHANNELS 3 Zrotation Yrotation Xrotation
                        JOINT RightHandPinky4
                        {
                          OFFSET -1.546529 2e-06 4e-06
                          CHANNELS 3 Zrotation Yrotation Xrotation
                          JOINT RightHandPinkyEnd
                          {
                            OFFSET -1.952341 0.0 -4e-06
                            CHANNELS 3 Zrotation Yrotation Xrotation
                          }
                        }
                      }
                    }
                  }
                }
              }
            }
          }
        }
      }
    }
    JOINT LeftLeg
    {
      OFFSET -8.443107 2.567604 10.043214
      CHANNELS 3 Zrotation Yrotation Xrotation
      JOINT LeftShin
      {
        OFFSET 43.229198 1e-06 -1e-06
        CHANNELS 3 Zrotation Yrotation Xrotation
        JOINT LeftFoot
        {
          OFFSET 42.298611 1e-06 1e-06
          CHANNELS 3 Zrotation Yrotation Xrotation
          JOINT LeftToeBase
          {
            OFFSET 14.165858 1e-06 0.0
            CHANNELS 3 Zrotation Yrotation Xrotation
            JOINT LeftToeEnd
            {
              OFFSET 6.7141 -0.234461 0.0
              CHANNELS 3 Zrotation Yrotation Xrotation
            }
          }
        }
      }
    }
    JOINT RightLeg
    {
      OFFSET -8.303923 2.592729 -10.047278
      CHANNELS 3 Zrotation Yrotation Xrotation
      JOINT RightShin
      {
        OFFSET -43.369682 0.0 1e-06
        CHANNELS 3 Zrotation Yrotation Xrotation
        JOINT RightFoot
        {
          OFFSET -42.260784 4e-06 2e-06
          CHANNELS 3 Zrotation Yrotation Xrotation
          JOINT RightToeBase
          {
            OFFSET -14.222245 -2e-06 -1e-06
            CHANNELS 3 Zrotation Yrotation Xrotation
            JOINT RightToeEnd
            {
              OFFSET -6.660062 0.232574 -2e-06
              CHANNELS 3 Zrotation Yrotation Xrotation
            }
          }
        }
      }
    }
  }
}
MOTION
Frames: 4
Frame Time: 0.03333333333333333
0.0 0.0 0.0 0.0 -0.0 0.0 -1.645575 99.658134 -2.774328 89.801163 2.683885 91.2211 -3.138643 0.502212 0.112896 -12.0878 -0.475937 0.079893 17.31328 0.781424 -2.092725 19.72143 -1.051204 2.376656 -2.557307 -0.376572 0.149659 -29.707628 -0.969896 -1.124605 5e-06 0.0 0.0 0.047079 0.00068 -0.02281 0.119341 -0.002524 -0.038602 0.105289 0.001996 0.002801 -131.305969 -72.868637 150.965851 42.172337 -40.152905 -47.314529 69.315842 1.029499 -0.650979 -7.791703 18.735401 -81.658218 17.636627 -26.322725 52.411179 -19.46666 -14.395594 29.410385 -1e-06 -8.774819 -2e-06 16.671574 -17.443594 5.625281 -0.609778 -1.795654 -3.889328 -4.807087 -11.046808 -2.93785 5e-06 -20.976011 -2e-06 -5.019966 -25.033548 -4.031878 6e-06 1e-06 1e-06 -10.634534 -5.686971 -3.565588 10.573272 -17.922947 -3.113899 3e-06 -13.821206 2e-06 -0.501776 -31.181498 -4.027014 -10.656904 -59.047424 6.656806 -13.982716 -7.150197 -2.875044 13.772731 -8.401491 -3.21824 0.347732 -34.211544 0.771655 -0.963028 -17.73337 2.621023 0.0 0.0 1e-06 -17.346418 -20.095217 -4.20178 21.757555 -1.638375 3.86643 1e-06 -6.338821 -0.0 -1.697587 -22.59174 -6.194006 -1e-06 -4e-06 -2e-06 30.408915 -73.578247 172.092636 36.429062 -34.85331 -53.988171 72.594124 -1.129564 0.659305 -16.869663 22.471817 -90.888756 22.182114 -20.375895 49.933327 -16.701815 -16.743528 28.476536 -5e-06 -12.690598 -2e-06 14.816417 -16.972025 3.86986 -0.10592 -1.513856 -4.275884 -5.03904 -5.612873 -2.953555 1e-06 -11.020526 -2e-06 -6.111296 -15.895336 -3.840472 -3e-06 -0.0 0.0 -10.283373 -5.680288 -4.341838 11.028296 -11.302407 -2.372633 -1.38427 -14.238585 -6.320123 -0.625441 -26.924191 -3.8276 -4.752832 -49.353092 -2.381779 -13.708522 -7.363477 -3.720941 18.14115 -14.052742 -3.242676 8e-06 -18.78727 -2e-06 -0.42971 -8.456047 2.555504 2e-06 -2e-06 1e-06 -15.923534 -20.094486 -5.473588 30.419207 -7.190828 1.735924 5e-06 -8.162927 -1e-06 -1.861902 -22.861473 -6.167946 -0.0 -1e-06 -0.0 175.484207 -6.002288 -11.610613 18.047575 -0.008295 0.099086 -79.019318 1.181974 -4.632368 -7.217388 1.710179 2.113401 -0.999999 -0.0 0.0 -5.826474 -2.851595 -9.691651 18.889137 -0.028378 0.020089 -78.882111 -3.823581 -6.163077 -7.462569 0.624628 1.606993 -1.000002 0.0 -0.0 
0.0 0.0 0.0 0.0 -0.0 0.0 -1.695437 99.659309 -2.783033 89.781769 2.658565 91.245819 -3.119607 0.478883 0.097208 -12.086236 -0.470897 0.092833 17.288881 0.768732 -2.106615 19.558338 -0.968499 2.347259 -2.543772 -0.388634 0.116323 -29.749538 -0.958449 -1.288767 6e-06 -0.0 0.0 0.04878 0.003001 -0.009929 0.135112 0.000469 -0.025499 0.122319 0.003611 0.015362 -131.320328 -72.940399 150.96228 42.36351 -40.132519 -46.578239 70.325745 0.991332 -0.58288 -7.364311 18.803131 -80.577721 17.636627 -26.322733 52.411213 -19.46666 -14.3956 29.410395 -0.0 -8.774822 -3e-06 16.651308 -17.401388 5.639094 -0.609777 -1.795655 -3.889329 -4.80709 -11.046811 -2.937853 3e-06 -20.976019 0.0 -5.019973 -25.03356 -4.03188 7e-06 2e-06 2e-06 -10.634536 -5.686972 -3.565589 10.573276 -17.922951 -3.113901 3e-06 -13.821212 1e-06 -0.501778 -31.181505 -4.027017 -10.696462 -59.071739 6.697589 -13.982716 -7.150199 -2.875043 13.772731 -8.40149 -3.218244 0.347731 -34.211555 0.771651 -0.963029 -17.733372 2.621023 0.0 -0.0 1e-06 -17.346422 -20.095221 -4.201787 21.757561 -1.638376 3.86643 2e-06 -6.338824 1e-06 -1.697592 -22.591743 -6.194006 -1e-06 -3e-06 -3e-06 30.400719 -73.609451 172.155106 36.50816 -34.934296 -53.497986 72.973091 -1.031334 0.709254 -16.703707 22.531097 -91.35363 22.182104 -20.375887 49.9333 -16.701803 -16.743525 28.476519 -4e-06 -12.690595 -1e-06 14.790087 -16.902258 3.874163 -0.105917 -1.513854 -4.275881 -5.039042 -5.61287 -2.953554 4e-06 -11.020519 1e-06 -6.111297 -15.895328 -3.840468 -1e-06 -1e-06 1e-06 -10.283368 -5.680288 -4.341837 11.028291 -11.302401 -2.372631 -1.384268 -14.238575 -6.32012 -0.62544 -26.924179 -3.827599 -4.743624 -49.394218 -2.392696 -13.708519 -7.363474 -3.720937 18.141142 -14.052733 -3.242672 7e-06 -18.787262 -3e-06 -0.429713 -8.456041 2.555502 0.0 -2e-06 1e-06 -15.92353 -20.094475 -5.473582 30.419205 -7.190824 1.735923 3e-06 -8.162922 1e-06 -1.861905 -22.86146 -6.167939 2e-06 -3e-06 1e-06 175.448502 -6.067831 -11.569337 18.052942 -0.016131 0.107187 -79.003899 1.251723 -4.701524 -7.236737 1.716832 2.111802 -0.999998 -0.0 0.0 -5.843357 -2.788762 -9.67578 18.873825 -0.024469 0.018835 -78.883514 -3.883024 -6.157126 -7.469548 0.628053 1.604809 -1.000001 0.0 -0.0 
0.0 0.0 0.0 0.0 -0.0 0.0 -1.746581 99.659904 -2.768896 89.757484 2.615277 91.270912 -3.1103 0.465926 0.069802 -12.096869 -0.468491 0.109338 17.254465 0.748566 -2.105963 19.386267 -0.85643 2.321064 -2.540236 -0.400174 0.07985 -29.788986 -0.975323 -1.44689 6e-06 0.0 -0.0 0.051444 0.005697 0.004025 0.14532 0.003887 -0.011436 0.133162 0.005576 0.028534 -131.178711 -73.005013 150.808044 42.456715 -40.214554 -45.726402 71.343979 0.983372 -0.505358 -6.834091 18.781303 -79.218529 17.636625 -26.322729 52.411179 -19.466661 -14.395594 29.410381 -1e-06 -8.77482 -1e-06 16.610155 -17.399233 5.675897 -0.609778 -1.795655 -3.889329 -4.807086 -11.046809 -2.937851 5e-06 -20.976015 -2e-06 -5.019968 -25.033558 -4.03188 5e-06 3e-06 -0.0 -10.634535 -5.686972 -3.565589 10.573275 -17.922947 -3.1139 3e-06 -13.821209 -1e-06 -0.501779 -31.181498 -4.027013 -10.741209 -59.070183 6.749118 -13.982711 -7.150198 -2.875044 13.772726 -8.401491 -3.218241 0.347736 -34.211552 0.771653 -0.96303 -17.73337 2.621021 -1e-06 1e-06 -1e-06 -17.346411 -20.095215 -4.20178 21.757555 -1.638375 3.866427 2e-06 -6.338821 0.0 -1.697589 -22.591742 -6.194006 -0.0 -3e-06 -1e-06 30.406736 -73.661926 172.184357 36.574715 -35.034637 -52.9827 73.331657 -0.876244 0.750636 -16.425734 22.588394 -91.54287 22.182117 -20.375898 49.933331 -16.701817 -16.743534 28.476534 -5e-06 -12.690601 -2e-06 14.773028 -16.855988 3.860916 -0.10592 -1.513856 -4.275884 -5.039045 -5.612875 -2.953557 7e-06 -11.020527 -2e-06 -6.111297 -15.895338 -3.840472 -1e-06 1e-06 -0.0 -10.283371 -5.680287 -4.34184 11.028296 -11.302407 -2.372634 -1.38427 -14.238585 -6.320123 -0.625438 -26.924196 -3.827603 -4.718766 -49.382553 -2.423525 -13.708529 -7.363479 -3.72094 18.141151 -14.052742 -3.242675 1e-05 -18.78727 -4e-06 -0.429712 -8.456045 2.555504 2e-06 -1e-06 0.0 -15.923541 -20.094486 -5.473583 30.419222 -7.190827 1.735924 4e-06 -8.162927 -0.0 -1.861901 -22.861473 -6.167945 0.0 -1e-06 -1e-06 175.397888 -6.138419 -11.513607 18.070997 -0.024575 0.11417 -79.003456 1.283363 -4.76501 -7.242702 1.714795 2.108854 -0.999999 1e-06 -0.0 -5.868654 -2.724335 -9.678896 18.862526 -0.017168 0.007402 -78.900002 -3.900816 -6.140355 -7.451802 0.62671 1.603305 -1.000003 0.0 0.0 
0.0 0.0 0.0 0.0 -0.0 0.0 -1.797432 99.661194 -2.739046 89.730431 2.576497 91.276932 -3.10623 0.463472 0.035089 -12.105088 -0.474031 0.11665 17.208212 0.723078 -2.085762 19.220867 -0.738672 2.292828 -2.548702 -0.400494 0.029309 -29.797537 -0.978331 -1.576041 5e-06 -0.0 -0.0 0.05389 0.005912 0.007702 0.146217 0.004692 -0.008039 0.136047 0.005143 0.031583 -130.906082 -73.03849 150.562683 42.451256 -40.366165 -44.851925 72.285492 0.993959 -0.449361 -6.235032 18.726114 -77.833458 17.636627 -26.322729 52.411186 -19.46666 -14.395598 29.410389 -1e-06 -8.774822 -1e-06 16.574471 -17.410259 5.692244 -0.609774 -1.795653 -3.889328 -4.80709 -11.04681 -2.93785 5e-06 -20.976015 -0.0 -5.019969 -25.033552 -4.031881 6e-06 3e-06 1e-06 -10.634534 -5.68697 -3.565587 10.573271 -17.922947 -3.1139 3e-06 -13.821209 0.0 -0.50178 -31.181498 -4.027016 -10.753504 -59.00806 6.775305 -13.982713 -7.150199 -2.875042 13.772727 -8.401491 -3.218241 0.347737 -34.211544 0.771653 -0.963027 -17.73337 2.621019 2e-06 -0.0 -0.0 -17.346416 -20.095215 -4.201784 21.757555 -1.638376 3.866428 1e-06 -6.338822 0.0 -1.697589 -22.591743 -6.194005 -2e-06 -2e-06 -2e-06 30.308496 -73.725281 172.278488 36.594509 -35.136742 -52.493797 73.651146 -0.749594 0.784526 -16.078278 22.672037 -91.592178 22.182117 -20.375916 49.93335 -16.701817 -16.74354 28.476549 -5e-06 -12.690605 0.0 14.757748 -16.803038 3.852353 -0.105918 -1.513856 -4.275884 -5.039042 -5.612875 -2.953557 6e-06 -11.020528 -3e-06 -6.111297 -15.895341 -3.840471 -1e-06 -2e-06 1e-06 -10.283375 -5.680289 -4.341841 11.028297 -11.302409 -2.372633 -1.384268 -14.238585 -6.320123 -0.625439 -26.924198 -3.827599 -4.676539 -49.321255 -2.467632 -13.708528 -7.363479 -3.720942 18.141155 -14.052744 -3.242675 8e-06 -18.787275 -0.0 -0.429715 -8.456047 2.555507 0.0 -1e-06 0.0 -15.923543 -20.094494 -5.473587 30.419224 -7.190827 1.735924 5e-06 -8.162929 1e-06 -1.861904 -22.861479 -6.167945 -0.0 -0.0 0.0 175.373779 -6.210776 -11.472721 18.078535 -0.029787 0.11936 -79.013084 1.306995 -4.838632 -7.239334 1.707752 2.106985 -0.999998 -0.0 0.0 -5.87704 -2.651151 -9.674569 18.839453 -0.010633 -0.009731 -78.920006 -3.896237 -6.114704 -7.406276 0.621916 1.602336 -1.000001 0.0 0.0 
